<svg width="67" height="67" viewBox="0 0 67 67" fill="none" xmlns="http://www.w3.org/2000/svg">
<path d="M28.9198 8.2627L22.0342 24.7882L33.0512 60.5934L44.0682 24.7882L37.1825 8.2627" stroke="white" stroke-width="4" stroke-linecap="round" stroke-linejoin="round"/>
<path d="M46.8224 8.2627C47.6776 8.2627 48.521 8.4618 49.2859 8.84424C50.0508 9.22668 50.7161 9.78196 51.2292 10.4661L59.492 21.4831C60.2006 22.4282 60.5867 23.5762 60.5931 24.7575C60.5996 25.9388 60.2261 27.0909 59.5278 28.0437L37.5213 58.3019C37.0111 59.011 36.3396 59.5887 35.5621 59.9871C34.7846 60.3856 33.9235 60.5934 33.0498 60.5934C32.1762 60.5934 31.3151 60.3856 30.5376 59.9871C29.7601 59.5887 29.0885 59.011 28.5783 58.3019L6.57187 28.0437C5.87397 27.0906 5.50096 25.9383 5.50791 24.757C5.51485 23.5757 5.90137 22.4279 6.61043 21.4831L14.8677 10.4744C15.3805 9.78796 16.0463 9.23064 16.8122 8.8467C17.5782 8.46277 18.4232 8.2628 19.28 8.2627H46.8224Z" stroke="white" stroke-width="4" stroke-linecap="round" stroke-linejoin="round"/>
<path d="M5.5083 24.7882H60.5932" stroke="white" stroke-width="4" stroke-linecap="round" stroke-linejoin="round"/>
</svg>
