<svg width="588" height="378" viewBox="0 0 588 378" fill="none" xmlns="http://www.w3.org/2000/svg">
<path d="M474.277 20.1704C472.961 19.767 471.879 19.4031 470.34 18.9204C339.955 -21.9699 126.866 15.848 120.438 17.85C114.01 19.8521 108.608 21.6923 103.723 26.518C98.4289 32.2805 97.1145 37.5406 97.0879 45.278L97.1095 48.1508C97.1098 51.3374 97.1141 54.5236 97.132 57.7101C97.1457 59.9893 97.1559 62.2686 97.1627 64.5478C97.2043 80.1564 97.4325 95.7548 97.84 111.358C98.1542 123.36 98.4438 135.359 98.508 147.366C98.5141 148.967 98.5206 150.569 98.5275 152.17C98.5473 154.394 98.5664 156.617 98.5702 158.84L98.5705 160.873C98.6278 164.471 98.6278 164.471 98.34 167.92C96.6602 173.018 96.1042 177.376 96.08 182.748L96.0971 185.783C96.091 189.192 96.0882 192.6 96.098 196.009C96.1057 198.459 96.1101 200.909 96.1113 203.36C96.1106 209.834 96.1175 216.307 96.1342 222.781C96.148 228.092 96.1547 179.426 96.1547 238.713C96.1547 298 89.5804 343.1 162.152 362.545C234.724 381.991 387.08 384 437.08 359.5C494.58 342.5 489.937 319.5 489.937 279.494C489.937 239.487 490.762 224.516 490.762 224.516C491.093 212.991 491.414 201.463 491.555 189.933L491.59 186.358L491.655 183.093L491.668 180.104C491.696 177.559 491.696 177.559 491.34 174.92C488.702 169.49 487.992 165.495 487.975 159.434L488.012 156.131C488.017 152.479 488.027 148.827 488.057 145.174C488.079 142.576 488.096 139.978 488.108 137.38C488.186 117.34 488.547 97.3101 489.041 77.2766C489.244 69.0737 489.46 60.8712 489.557 52.6662L489.59 49.1704C489.723 42.6473 489.559 36.9324 487.227 30.7739C484.704 25.5033 479.623 22.188 474.277 20.1704Z" fill="white"/>
<path d="M193.49 221.776H194.505C194.505 222.849 194.214 223.656 193.633 224.196C193.052 224.729 192.266 224.996 191.275 224.996C190.591 224.996 189.993 224.828 189.48 224.493C188.968 224.158 188.568 223.693 188.281 223.099C188 222.504 187.86 221.813 187.86 221.027V220.033C187.86 219.247 188 218.556 188.281 217.961C188.568 217.367 188.968 216.902 189.48 216.567C189.993 216.232 190.591 216.064 191.275 216.064C192.266 216.064 193.052 216.331 193.633 216.864C194.221 217.397 194.515 218.201 194.515 219.274H193.5C193.5 218.488 193.309 217.91 192.926 217.541C192.55 217.172 192 216.987 191.275 216.987C190.762 216.987 190.325 217.121 189.962 217.387C189.607 217.654 189.337 218.016 189.152 218.474C188.968 218.932 188.875 219.448 188.875 220.022V221.027C188.875 221.602 188.968 222.121 189.152 222.586C189.337 223.044 189.607 223.406 189.962 223.673C190.325 223.933 190.762 224.062 191.275 224.062C192 224.062 192.55 223.881 192.926 223.519C193.302 223.157 193.49 222.576 193.49 221.776ZM184.979 220.525C184.979 221.475 185.143 222.364 185.471 223.191C185.806 224.018 186.268 224.743 186.855 225.365C187.443 225.98 188.124 226.462 188.896 226.811C189.675 227.152 190.506 227.323 191.388 227.323C192.263 227.323 193.086 227.152 193.859 226.811C194.631 226.462 195.312 225.98 195.899 225.365C196.487 224.743 196.945 224.018 197.273 223.191C197.608 222.364 197.776 221.475 197.776 220.525C197.776 219.568 197.608 218.679 197.273 217.859C196.945 217.039 196.487 216.321 195.899 215.706C195.312 215.09 194.631 214.612 193.859 214.27C193.086 213.928 192.263 213.757 191.388 213.757C190.506 213.757 189.675 213.928 188.896 214.27C188.124 214.612 187.443 215.09 186.855 215.706C186.268 216.321 185.806 217.039 185.471 217.859C185.143 218.679 184.979 219.568 184.979 220.525ZM184.107 220.525C184.107 219.438 184.295 218.43 184.671 217.5C185.047 216.57 185.57 215.76 186.24 215.07C186.91 214.373 187.683 213.833 188.558 213.45C189.439 213.06 190.383 212.865 191.388 212.865C192.393 212.865 193.333 213.06 194.208 213.45C195.089 213.833 195.862 214.373 196.525 215.07C197.195 215.76 197.718 216.57 198.094 217.5C198.47 218.43 198.658 219.438 198.658 220.525C198.658 221.612 198.47 222.62 198.094 223.55C197.718 224.479 197.195 225.296 196.525 226C195.862 226.698 195.089 227.241 194.208 227.631C193.333 228.021 192.393 228.215 191.388 228.215C190.383 228.215 189.439 228.021 188.558 227.631C187.683 227.241 186.91 226.698 186.24 226C185.57 225.296 185.047 224.479 184.671 223.55C184.295 222.62 184.107 221.612 184.107 220.525ZM215.679 226.944V228H206.338V227.046L211.229 221.499C211.837 220.809 212.323 220.204 212.685 219.684C213.047 219.158 213.307 218.679 213.464 218.249C213.628 217.811 213.71 217.387 213.71 216.977C213.71 216.375 213.591 215.846 213.352 215.388C213.119 214.93 212.771 214.571 212.306 214.311C211.841 214.051 211.267 213.921 210.583 213.921C209.899 213.921 209.305 214.068 208.799 214.362C208.293 214.656 207.903 215.066 207.63 215.593C207.363 216.112 207.23 216.704 207.23 217.367H206.01C206.01 216.546 206.191 215.794 206.553 215.111C206.922 214.427 207.449 213.884 208.132 213.48C208.816 213.07 209.633 212.865 210.583 212.865C211.485 212.865 212.261 213.026 212.911 213.347C213.56 213.662 214.059 214.116 214.408 214.711C214.763 215.306 214.941 216.023 214.941 216.864C214.941 217.315 214.859 217.77 214.695 218.228C214.538 218.686 214.319 219.144 214.039 219.602C213.765 220.053 213.451 220.501 213.095 220.945C212.747 221.39 212.381 221.827 211.998 222.258L207.835 226.944H215.679ZM226.979 219.253V221.766C226.979 222.859 226.876 223.813 226.671 224.626C226.466 225.433 226.166 226.103 225.769 226.636C225.379 227.163 224.901 227.556 224.333 227.815C223.773 228.075 223.13 228.205 222.406 228.205C221.832 228.205 221.305 228.123 220.827 227.959C220.348 227.795 219.921 227.545 219.545 227.21C219.176 226.869 218.861 226.441 218.602 225.929C218.342 225.416 218.144 224.814 218.007 224.124C217.87 223.427 217.802 222.641 217.802 221.766V219.253C217.802 218.153 217.904 217.203 218.109 216.403C218.321 215.603 218.622 214.94 219.012 214.414C219.408 213.887 219.89 213.498 220.458 213.245C221.025 212.985 221.667 212.855 222.385 212.855C222.959 212.855 223.486 212.94 223.964 213.111C224.45 213.275 224.877 213.521 225.246 213.85C225.622 214.178 225.937 214.598 226.189 215.111C226.449 215.617 226.644 216.215 226.774 216.905C226.911 217.596 226.979 218.378 226.979 219.253ZM225.759 221.909V219.1C225.759 218.423 225.711 217.808 225.615 217.254C225.526 216.7 225.393 216.215 225.215 215.798C225.038 215.381 224.812 215.032 224.539 214.752C224.272 214.472 223.958 214.263 223.595 214.126C223.24 213.983 222.836 213.911 222.385 213.911C221.832 213.911 221.343 214.024 220.919 214.25C220.502 214.468 220.153 214.796 219.873 215.234C219.593 215.665 219.381 216.205 219.237 216.854C219.101 217.503 219.032 218.252 219.032 219.1V221.909C219.032 222.579 219.077 223.191 219.166 223.745C219.254 224.292 219.391 224.777 219.576 225.201C219.76 225.625 219.986 225.983 220.252 226.277C220.526 226.564 220.84 226.783 221.196 226.934C221.558 227.077 221.961 227.149 222.406 227.149C222.973 227.149 223.465 227.036 223.882 226.811C224.299 226.578 224.648 226.24 224.928 225.795C225.208 225.344 225.417 224.794 225.554 224.145C225.69 223.488 225.759 222.743 225.759 221.909ZM238.976 226.944V228H229.635V227.046L234.526 221.499C235.134 220.809 235.62 220.204 235.982 219.684C236.344 219.158 236.604 218.679 236.761 218.249C236.925 217.811 237.007 217.387 237.007 216.977C237.007 216.375 236.888 215.846 236.648 215.388C236.416 214.93 236.067 214.571 235.603 214.311C235.138 214.051 234.563 213.921 233.88 213.921C233.196 213.921 232.602 214.068 232.096 214.362C231.59 214.656 231.2 215.066 230.927 215.593C230.66 216.112 230.527 216.704 230.527 217.367H229.307C229.307 216.546 229.488 215.794 229.85 215.111C230.219 214.427 230.746 213.884 231.429 213.48C232.113 213.07 232.93 212.865 233.88 212.865C234.782 212.865 235.558 213.026 236.208 213.347C236.857 213.662 237.356 214.116 237.705 214.711C238.06 215.306 238.238 216.023 238.238 216.864C238.238 217.315 238.156 217.77 237.992 218.228C237.834 218.686 237.616 219.144 237.335 219.602C237.062 220.053 236.748 220.501 236.392 220.945C236.043 221.39 235.678 221.827 235.295 222.258L231.132 226.944H238.976ZM243.078 220.617L242.114 220.34L242.842 213.07H250.307V214.219H243.888L243.365 219.243C243.625 219.059 244 218.877 244.493 218.7C244.992 218.515 245.552 218.423 246.174 218.423C246.837 218.423 247.439 218.536 247.979 218.761C248.526 218.98 248.994 219.301 249.384 219.725C249.773 220.142 250.074 220.648 250.286 221.243C250.498 221.831 250.604 222.497 250.604 223.242C250.604 223.96 250.515 224.62 250.337 225.221C250.16 225.823 249.89 226.349 249.527 226.8C249.165 227.245 248.704 227.59 248.143 227.836C247.583 228.082 246.916 228.205 246.144 228.205C245.549 228.205 244.988 228.123 244.462 227.959C243.942 227.788 243.478 227.532 243.067 227.19C242.657 226.848 242.322 226.417 242.062 225.898C241.81 225.378 241.652 224.77 241.591 224.073H242.77C242.852 224.743 243.033 225.307 243.313 225.765C243.594 226.223 243.97 226.568 244.441 226.8C244.92 227.033 245.487 227.149 246.144 227.149C246.677 227.149 247.142 227.063 247.538 226.893C247.941 226.722 248.276 226.472 248.543 226.144C248.816 225.809 249.021 225.402 249.158 224.924C249.302 224.438 249.374 223.885 249.374 223.263C249.374 222.729 249.298 222.241 249.148 221.796C248.998 221.345 248.775 220.952 248.481 220.617C248.194 220.275 247.839 220.012 247.415 219.828C246.991 219.643 246.506 219.551 245.959 219.551C245.248 219.551 244.681 219.646 244.257 219.838C243.84 220.029 243.447 220.289 243.078 220.617ZM262.017 218.525L259.156 222.545L257.905 222.535V222.401L260.93 218.525H262.017ZM259.156 222.453L262.017 226.493H260.93L257.905 222.596V222.463L259.156 222.453ZM265.185 218.525L262.324 222.545L261.073 222.535V222.401L264.098 218.525H265.185ZM262.324 222.453L265.185 226.493H264.098L261.073 222.596V222.463L262.324 222.453ZM278.884 220.904V226.216C278.713 226.469 278.419 226.749 278.002 227.057C277.585 227.364 277.025 227.634 276.321 227.867C275.617 228.092 274.742 228.205 273.696 228.205C272.821 228.205 272.018 228.048 271.286 227.733C270.555 227.419 269.919 226.964 269.379 226.37C268.846 225.768 268.432 225.047 268.138 224.206C267.851 223.365 267.708 222.422 267.708 221.376V219.571C267.708 218.546 267.841 217.623 268.107 216.803C268.374 215.976 268.76 215.268 269.266 214.68C269.772 214.092 270.38 213.645 271.091 213.337C271.809 213.022 272.612 212.865 273.501 212.865C274.608 212.865 275.542 213.057 276.3 213.439C277.059 213.822 277.65 214.349 278.074 215.019C278.505 215.682 278.771 216.434 278.874 217.274H277.613C277.517 216.68 277.319 216.133 277.018 215.634C276.717 215.128 276.28 214.721 275.706 214.414C275.138 214.106 274.403 213.952 273.501 213.952C272.776 213.952 272.13 214.085 271.563 214.352C271.002 214.619 270.531 214.998 270.148 215.49C269.765 215.982 269.475 216.574 269.276 217.264C269.078 217.948 268.979 218.71 268.979 219.551V221.376C268.979 222.251 269.088 223.041 269.307 223.745C269.533 224.449 269.854 225.054 270.271 225.56C270.688 226.065 271.187 226.455 271.768 226.729C272.349 226.995 272.995 227.128 273.706 227.128C274.465 227.128 275.111 227.057 275.644 226.913C276.177 226.77 276.604 226.599 276.926 226.4C277.254 226.195 277.49 226.004 277.633 225.826V221.981H273.624V220.904H278.884ZM291.127 226.923V228H283.386V226.923H291.127ZM283.755 213.07V228H282.494V213.07H283.755ZM303.914 219.735V221.335C303.914 222.381 303.777 223.328 303.504 224.175C303.237 225.016 302.848 225.737 302.335 226.339C301.829 226.94 301.221 227.402 300.51 227.723C299.799 228.044 298.999 228.205 298.11 228.205C297.242 228.205 296.449 228.044 295.731 227.723C295.021 227.402 294.409 226.94 293.896 226.339C293.383 225.737 292.987 225.016 292.707 224.175C292.426 223.328 292.286 222.381 292.286 221.335V219.735C292.286 218.689 292.423 217.746 292.696 216.905C292.977 216.058 293.373 215.333 293.886 214.731C294.398 214.13 295.01 213.668 295.721 213.347C296.432 213.026 297.222 212.865 298.09 212.865C298.979 212.865 299.778 213.026 300.489 213.347C301.2 213.668 301.812 214.13 302.325 214.731C302.837 215.333 303.23 216.058 303.504 216.905C303.777 217.746 303.914 218.689 303.914 219.735ZM302.663 221.335V219.715C302.663 218.833 302.561 218.04 302.355 217.336C302.157 216.632 301.86 216.03 301.463 215.531C301.074 215.032 300.595 214.649 300.028 214.383C299.46 214.116 298.814 213.983 298.09 213.983C297.386 213.983 296.753 214.116 296.193 214.383C295.632 214.649 295.154 215.032 294.757 215.531C294.368 216.03 294.067 216.632 293.855 217.336C293.65 218.04 293.547 218.833 293.547 219.715V221.335C293.547 222.224 293.65 223.023 293.855 223.734C294.067 224.438 294.371 225.043 294.768 225.549C295.164 226.048 295.643 226.431 296.203 226.698C296.771 226.964 297.406 227.098 298.11 227.098C298.842 227.098 299.488 226.964 300.048 226.698C300.609 226.431 301.084 226.048 301.474 225.549C301.863 225.043 302.157 224.438 302.355 223.734C302.561 223.023 302.663 222.224 302.663 221.335ZM315.552 224.329C315.552 223.919 315.484 223.553 315.347 223.232C315.21 222.911 314.985 222.624 314.67 222.371C314.363 222.111 313.946 221.872 313.419 221.653C312.9 221.427 312.25 221.205 311.471 220.986C310.726 220.774 310.053 220.542 309.451 220.289C308.85 220.036 308.333 219.746 307.903 219.417C307.479 219.089 307.154 218.707 306.929 218.269C306.703 217.825 306.59 217.309 306.59 216.721C306.59 216.146 306.713 215.624 306.959 215.152C307.206 214.68 307.551 214.273 307.995 213.932C308.446 213.59 308.976 213.327 309.584 213.142C310.2 212.958 310.873 212.865 311.604 212.865C312.65 212.865 313.553 213.063 314.312 213.46C315.077 213.856 315.668 214.393 316.085 215.07C316.509 215.74 316.721 216.492 316.721 217.326H315.46C315.46 216.676 315.306 216.099 314.999 215.593C314.698 215.08 314.26 214.68 313.686 214.393C313.119 214.099 312.425 213.952 311.604 213.952C310.784 213.952 310.094 214.079 309.533 214.332C308.979 214.578 308.559 214.909 308.272 215.326C307.992 215.736 307.852 216.194 307.852 216.7C307.852 217.056 307.92 217.384 308.057 217.685C308.193 217.979 308.416 218.255 308.723 218.515C309.038 218.768 309.451 219.007 309.964 219.233C310.477 219.452 311.109 219.66 311.861 219.858C312.654 220.077 313.358 220.32 313.973 220.586C314.588 220.853 315.108 221.161 315.532 221.509C315.956 221.851 316.277 222.251 316.496 222.709C316.714 223.167 316.824 223.7 316.824 224.309C316.824 224.917 316.694 225.464 316.434 225.949C316.181 226.428 315.822 226.834 315.357 227.169C314.899 227.504 314.356 227.761 313.727 227.938C313.105 228.116 312.425 228.205 311.687 228.205C311.023 228.205 310.364 228.12 309.708 227.949C309.051 227.778 308.45 227.515 307.903 227.159C307.363 226.797 306.929 226.332 306.601 225.765C306.279 225.197 306.119 224.521 306.119 223.734H307.37C307.37 224.363 307.496 224.893 307.749 225.324C308.002 225.754 308.337 226.103 308.754 226.37C309.178 226.636 309.643 226.831 310.148 226.954C310.661 227.07 311.174 227.128 311.687 227.128C312.473 227.128 313.153 227.012 313.727 226.78C314.308 226.547 314.756 226.223 315.07 225.806C315.392 225.382 315.552 224.89 315.552 224.329ZM328 224.329C328 223.919 327.932 223.553 327.795 223.232C327.659 222.911 327.433 222.624 327.119 222.371C326.811 222.111 326.394 221.872 325.868 221.653C325.348 221.427 324.699 221.205 323.919 220.986C323.174 220.774 322.501 220.542 321.899 220.289C321.298 220.036 320.782 219.746 320.351 219.417C319.927 219.089 319.603 218.707 319.377 218.269C319.151 217.825 319.039 217.309 319.039 216.721C319.039 216.146 319.162 215.624 319.408 215.152C319.654 214.68 319.999 214.273 320.443 213.932C320.895 213.59 321.424 213.327 322.033 213.142C322.648 212.958 323.321 212.865 324.053 212.865C325.099 212.865 326.001 213.063 326.76 213.46C327.525 213.856 328.117 214.393 328.534 215.07C328.958 215.74 329.169 216.492 329.169 217.326H327.908C327.908 216.676 327.754 216.099 327.447 215.593C327.146 215.08 326.708 214.68 326.134 214.393C325.567 214.099 324.873 213.952 324.053 213.952C323.232 213.952 322.542 214.079 321.981 214.332C321.428 214.578 321.007 214.909 320.72 215.326C320.44 215.736 320.3 216.194 320.3 216.7C320.3 217.056 320.368 217.384 320.505 217.685C320.642 217.979 320.864 218.255 321.171 218.515C321.486 218.768 321.899 219.007 322.412 219.233C322.925 219.452 323.557 219.66 324.309 219.858C325.102 220.077 325.806 220.32 326.421 220.586C327.037 220.853 327.556 221.161 327.98 221.509C328.404 221.851 328.725 222.251 328.944 222.709C329.163 223.167 329.272 223.7 329.272 224.309C329.272 224.917 329.142 225.464 328.882 225.949C328.629 226.428 328.271 226.834 327.806 227.169C327.348 227.504 326.804 227.761 326.175 227.938C325.553 228.116 324.873 228.205 324.135 228.205C323.472 228.205 322.812 228.12 322.156 227.949C321.5 227.778 320.898 227.515 320.351 227.159C319.811 226.797 319.377 226.332 319.049 225.765C318.728 225.197 318.567 224.521 318.567 223.734H319.818C319.818 224.363 319.944 224.893 320.197 225.324C320.45 225.754 320.785 226.103 321.202 226.37C321.626 226.636 322.091 226.831 322.597 226.954C323.109 227.07 323.622 227.128 324.135 227.128C324.921 227.128 325.601 227.012 326.175 226.78C326.756 226.547 327.204 226.223 327.519 225.806C327.84 225.382 328 224.89 328 224.329ZM337.003 213.07V228H335.752V213.07H337.003ZM342.12 213.07V214.157H330.646V213.07H342.12ZM353.83 226.923V228H345.432V226.923H353.83ZM345.812 213.07V228H344.55V213.07H345.812ZM352.784 219.766V220.843H345.432V219.766H352.784ZM353.779 213.07V214.157H345.432V213.07H353.779ZM365.807 223.345H367.068C366.965 224.35 366.688 225.218 366.237 225.949C365.786 226.674 365.171 227.231 364.392 227.621C363.612 228.01 362.672 228.205 361.572 228.205C360.724 228.205 359.955 228.044 359.265 227.723C358.581 227.402 357.993 226.947 357.501 226.359C357.009 225.765 356.629 225.054 356.363 224.227C356.096 223.399 355.963 222.48 355.963 221.468V219.602C355.963 218.59 356.096 217.674 356.363 216.854C356.629 216.027 357.012 215.316 357.511 214.721C358.01 214.126 358.608 213.668 359.306 213.347C360.003 213.026 360.789 212.865 361.664 212.865C362.724 212.865 363.64 213.06 364.412 213.45C365.185 213.833 365.793 214.386 366.237 215.111C366.688 215.835 366.965 216.71 367.068 217.736H365.807C365.711 216.929 365.499 216.246 365.171 215.685C364.843 215.125 364.388 214.697 363.807 214.403C363.233 214.103 362.519 213.952 361.664 213.952C360.967 213.952 360.345 214.085 359.798 214.352C359.251 214.619 358.786 215.001 358.403 215.5C358.021 215.993 357.727 216.584 357.521 217.274C357.323 217.965 357.224 218.734 357.224 219.582V221.468C357.224 222.289 357.32 223.044 357.511 223.734C357.703 224.425 357.983 225.023 358.352 225.529C358.728 226.035 359.186 226.428 359.726 226.708C360.266 226.988 360.881 227.128 361.572 227.128C362.454 227.128 363.188 226.988 363.776 226.708C364.371 226.421 364.833 225.997 365.161 225.437C365.489 224.876 365.704 224.179 365.807 223.345ZM379.157 213.07H380.418V223.181C380.418 224.302 380.183 225.235 379.711 225.98C379.239 226.725 378.604 227.282 377.804 227.651C377.011 228.021 376.132 228.205 375.168 228.205C374.177 228.205 373.285 228.021 372.492 227.651C371.699 227.282 371.07 226.725 370.605 225.98C370.147 225.235 369.918 224.302 369.918 223.181V213.07H371.169V223.181C371.169 224.049 371.34 224.777 371.682 225.365C372.024 225.953 372.496 226.394 373.097 226.688C373.699 226.981 374.389 227.128 375.168 227.128C375.941 227.128 376.628 226.981 377.229 226.688C377.831 226.394 378.303 225.953 378.645 225.365C378.986 224.777 379.157 224.049 379.157 223.181V213.07ZM383.936 213.07H388.786C389.818 213.07 390.713 213.238 391.472 213.573C392.231 213.908 392.815 214.403 393.226 215.06C393.643 215.709 393.851 216.509 393.851 217.459C393.851 218.163 393.701 218.802 393.4 219.376C393.106 219.951 392.699 220.433 392.18 220.822C391.66 221.205 391.059 221.468 390.375 221.612L389.934 221.776H384.756L384.735 220.699H389.073C389.852 220.699 390.501 220.549 391.021 220.248C391.541 219.947 391.93 219.551 392.19 219.059C392.457 218.56 392.59 218.026 392.59 217.459C392.59 216.782 392.443 216.198 392.149 215.706C391.862 215.207 391.435 214.824 390.867 214.557C390.3 214.291 389.606 214.157 388.786 214.157H385.197V228H383.936V213.07ZM393.154 228L389.288 221.325L390.642 221.314L394.497 227.867V228H393.154ZM396.609 226.339L399.47 222.309L400.711 222.319V222.453L397.696 226.339H396.609ZM396.609 218.32H397.696L400.711 222.258V222.391L399.47 222.401L396.609 218.32ZM399.88 226.339L402.741 222.309L403.982 222.319V222.453L400.967 226.339H399.88ZM399.88 218.32H400.967L403.982 222.258V222.391L402.741 222.401L399.88 218.32Z" fill="black"/>
<path d="M33.84 109.02C37.38 109.02 40.29 109.53 42.57 110.55C44.85 111.51 47.34 112.95 50.04 114.87C50.82 115.47 51.42 115.77 51.84 115.77C52.98 115.77 53.73 113.94 54.09 110.28H56.16C55.92 114.18 55.8 121.08 55.8 130.98H53.73C53.19 127.8 52.62 125.19 52.02 123.15C51.42 121.05 50.49 119.22 49.23 117.66C47.49 115.5 45.21 113.79 42.39 112.53C39.63 111.27 36.72 110.64 33.66 110.64C29.7 110.64 26.22 111.93 23.22 114.51C20.22 117.09 17.91 120.78 16.29 125.58C14.67 130.32 13.86 135.87 13.86 142.23C13.86 153.03 15.57 160.95 18.99 165.99C22.47 170.97 27.9 173.46 35.28 173.46C38.88 173.46 42 172.53 44.64 170.67C45.72 169.95 46.41 169.26 46.71 168.6C47.07 167.88 47.25 166.92 47.25 165.72V157.08C47.25 154.56 47.01 152.73 46.53 151.59C46.05 150.45 45.21 149.67 44.01 149.25C42.81 148.83 40.86 148.56 38.16 148.44V146.64C41.28 146.82 45.51 146.91 50.85 146.91C54.93 146.91 58.05 146.82 60.21 146.64V148.44C58.83 148.56 57.81 148.8 57.15 149.16C56.55 149.52 56.13 150.21 55.89 151.23C55.71 152.25 55.62 153.9 55.62 156.18V174H53.82C53.76 172.8 53.52 171.66 53.1 170.58C52.68 169.44 52.11 168.87 51.39 168.87C51.03 168.87 50.67 168.96 50.31 169.14C49.95 169.32 49.32 169.74 48.42 170.4C46.32 172.02 44.13 173.22 41.85 174C39.63 174.84 37.14 175.26 34.38 175.26C28.2 175.26 22.89 174 18.45 171.48C14.07 168.9 10.71 165.21 8.37 160.41C6.03 155.61 4.86 149.88 4.86 143.22C4.86 136.38 6.09 130.38 8.55 125.22C11.07 120 14.52 116.01 18.9 113.25C23.28 110.43 28.26 109.02 33.84 109.02ZM90.0113 112.08C87.8513 112.2 86.2613 112.44 85.2413 112.8C84.2813 113.16 83.6213 113.85 83.2613 114.87C82.9013 115.89 82.7213 117.54 82.7213 119.82V164.46C82.7213 166.74 82.9013 168.39 83.2613 169.41C83.6213 170.43 84.2813 171.12 85.2413 171.48C86.2613 171.78 87.8513 171.93 90.0113 171.93H96.5813C100.301 171.93 103.121 171.42 105.041 170.4C107.021 169.32 108.461 167.61 109.361 165.27C110.261 162.93 110.921 159.54 111.341 155.1H113.411C113.231 156.96 113.141 159.42 113.141 162.48C113.141 165.9 113.351 169.74 113.771 174C109.691 173.82 102.821 173.73 93.1613 173.73C81.6413 173.73 72.9413 173.82 67.0613 174V172.2C69.2213 172.08 70.7813 171.84 71.7413 171.48C72.7613 171.12 73.4513 170.43 73.8113 169.41C74.1713 168.39 74.3513 166.74 74.3513 164.46V119.82C74.3513 117.54 74.1713 115.89 73.8113 114.87C73.4513 113.85 72.7613 113.16 71.7413 112.8C70.7813 112.44 69.2213 112.2 67.0613 112.08V110.28C69.5813 110.46 73.4213 110.55 78.5813 110.55C83.3813 110.55 87.1913 110.46 90.0113 110.28V112.08ZM149.581 109.02C155.281 109.02 160.261 110.31 164.521 112.89C168.841 115.47 172.171 119.22 174.511 124.14C176.911 129 178.111 134.82 178.111 141.6C178.111 148.2 176.881 154.05 174.421 159.15C172.021 164.25 168.631 168.21 164.251 171.03C159.931 173.85 155.011 175.26 149.491 175.26C143.791 175.26 138.781 173.97 134.461 171.39C130.201 168.81 126.871 165.09 124.471 160.23C122.131 155.31 120.961 149.46 120.961 142.68C120.961 136.08 122.161 130.23 124.561 125.13C127.021 120.03 130.411 116.07 134.731 113.25C139.111 110.43 144.061 109.02 149.581 109.02ZM149.221 110.64C145.381 110.64 141.991 111.99 139.051 114.69C136.171 117.33 133.921 121.05 132.301 125.85C130.741 130.65 129.961 136.14 129.961 142.32C129.961 148.56 130.831 154.05 132.571 158.79C134.371 163.53 136.771 167.19 139.771 169.77C142.771 172.35 146.131 173.64 149.851 173.64C153.691 173.64 157.051 172.32 159.931 169.68C162.871 166.98 165.121 163.23 166.681 158.43C168.301 153.63 169.111 148.14 169.111 141.96C169.111 135.72 168.211 130.23 166.411 125.49C164.671 120.75 162.301 117.09 159.301 114.51C156.301 111.93 152.941 110.64 149.221 110.64ZM205.94 109.29C208.58 109.29 210.65 109.59 212.15 110.19C213.71 110.73 215.3 111.54 216.92 112.62C218.24 113.46 219.26 113.88 219.98 113.88C220.52 113.88 220.94 113.58 221.24 112.98C221.54 112.32 221.78 111.3 221.96 109.92H224.03C223.73 113.4 223.58 119.52 223.58 128.28H221.51C221.15 123.42 219.74 119.34 217.28 116.04C214.88 112.68 211.37 111 206.75 111C203.51 111 200.87 111.99 198.83 113.97C196.79 115.89 195.77 118.38 195.77 121.44C195.77 123.72 196.28 125.7 197.3 127.38C198.38 129.06 199.73 130.5 201.35 131.7C202.97 132.9 205.28 134.43 208.28 136.29L210.89 137.91C214.67 140.25 217.64 142.32 219.8 144.12C222.02 145.86 223.79 147.87 225.11 150.15C226.43 152.43 227.09 155.1 227.09 158.16C227.09 163.62 225.29 167.85 221.69 170.85C218.09 173.79 213.53 175.26 208.01 175.26C205.13 175.26 202.76 174.96 200.9 174.36C199.1 173.76 197.36 172.95 195.68 171.93C194.36 171.09 193.34 170.67 192.62 170.67C192.08 170.67 191.66 171 191.36 171.66C191.06 172.26 190.82 173.25 190.64 174.63H188.57C188.81 171.33 188.93 164.13 188.93 153.03H191C191.42 159.09 192.92 164.01 195.5 167.79C198.08 171.57 202.04 173.46 207.38 173.46C210.62 173.46 213.38 172.47 215.66 170.49C217.94 168.45 219.08 165.45 219.08 161.49C219.08 158.13 217.94 155.28 215.66 152.94C213.44 150.6 209.9 147.96 205.04 145.02C201.5 142.86 198.62 140.94 196.4 139.26C194.24 137.58 192.47 135.57 191.09 133.23C189.71 130.83 189.02 128.04 189.02 124.86C189.02 119.82 190.64 115.98 193.88 113.34C197.12 110.64 201.14 109.29 205.94 109.29ZM254.544 109.29C257.184 109.29 259.254 109.59 260.754 110.19C262.314 110.73 263.904 111.54 265.524 112.62C266.844 113.46 267.864 113.88 268.584 113.88C269.124 113.88 269.544 113.58 269.844 112.98C270.144 112.32 270.384 111.3 270.564 109.92H272.634C272.334 113.4 272.184 119.52 272.184 128.28H270.114C269.754 123.42 268.344 119.34 265.884 116.04C263.484 112.68 259.974 111 255.354 111C252.114 111 249.474 111.99 247.434 113.97C245.394 115.89 244.374 118.38 244.374 121.44C244.374 123.72 244.884 125.7 245.904 127.38C246.984 129.06 248.334 130.5 249.954 131.7C251.574 132.9 253.884 134.43 256.884 136.29L259.494 137.91C263.274 140.25 266.244 142.32 268.404 144.12C270.624 145.86 272.394 147.87 273.714 150.15C275.034 152.43 275.694 155.1 275.694 158.16C275.694 163.62 273.894 167.85 270.294 170.85C266.694 173.79 262.134 175.26 256.614 175.26C253.734 175.26 251.364 174.96 249.504 174.36C247.704 173.76 245.964 172.95 244.284 171.93C242.964 171.09 241.944 170.67 241.224 170.67C240.684 170.67 240.264 171 239.964 171.66C239.664 172.26 239.424 173.25 239.244 174.63H237.174C237.414 171.33 237.534 164.13 237.534 153.03H239.604C240.024 159.09 241.524 164.01 244.104 167.79C246.684 171.57 250.644 173.46 255.984 173.46C259.224 173.46 261.984 172.47 264.264 170.49C266.544 168.45 267.684 165.45 267.684 161.49C267.684 158.13 266.544 155.28 264.264 152.94C262.044 150.6 258.504 147.96 253.644 145.02C250.104 142.86 247.224 140.94 245.004 139.26C242.844 137.58 241.074 135.57 239.694 133.23C238.314 130.83 237.624 128.04 237.624 124.86C237.624 119.82 239.244 115.98 242.484 113.34C245.724 110.64 249.744 109.29 254.544 109.29ZM333.387 110.28C332.967 114.54 332.757 118.38 332.757 121.8C332.757 124.8 332.847 127.26 333.027 129.18H330.957C330.477 124.56 329.877 121.14 329.157 118.92C328.437 116.64 327.177 114.99 325.377 113.97C323.577 112.89 320.817 112.35 317.097 112.35H312.237V163.56C312.237 166.08 312.477 167.91 312.957 169.05C313.437 170.19 314.277 170.97 315.477 171.39C316.677 171.81 318.627 172.08 321.327 172.2V174C318.207 173.82 313.797 173.73 308.097 173.73C302.097 173.73 297.657 173.82 294.777 174V172.2C297.477 172.08 299.427 171.81 300.627 171.39C301.827 170.97 302.667 170.19 303.147 169.05C303.627 167.91 303.867 166.08 303.867 163.56V112.35H299.007C295.287 112.35 292.527 112.89 290.727 113.97C288.927 114.99 287.667 116.64 286.947 118.92C286.227 121.14 285.627 124.56 285.147 129.18H283.077C283.257 127.26 283.347 124.8 283.347 121.8C283.347 118.38 283.137 114.54 282.717 110.28C287.697 110.46 296.157 110.55 308.097 110.55C319.977 110.55 328.407 110.46 333.387 110.28ZM385.866 162.48C385.866 165.9 386.076 169.74 386.496 174C382.416 173.82 375.546 173.73 365.886 173.73C354.366 173.73 345.666 173.82 339.786 174V172.2C341.946 172.08 343.506 171.84 344.466 171.48C345.486 171.12 346.176 170.43 346.536 169.41C346.896 168.39 347.076 166.74 347.076 164.46V119.82C347.076 117.54 346.896 115.89 346.536 114.87C346.176 113.85 345.486 113.16 344.466 112.8C343.506 112.44 341.946 112.2 339.786 112.08V110.28C345.666 110.46 354.366 110.55 365.886 110.55C374.706 110.55 380.976 110.46 384.696 110.28C384.276 114.24 384.066 117.78 384.066 120.9C384.066 123.24 384.156 125.1 384.336 126.48H382.266C381.846 122.58 381.306 119.7 380.646 117.84C379.986 115.92 378.876 114.54 377.316 113.7C375.756 112.8 373.386 112.35 370.206 112.35H362.736C360.576 112.35 358.986 112.53 357.966 112.89C357.006 113.19 356.346 113.85 355.986 114.87C355.626 115.89 355.446 117.54 355.446 119.82V141.06H361.386C363.486 141.06 365.106 140.58 366.246 139.62C367.386 138.6 368.136 137.43 368.496 136.11C368.916 134.73 369.246 133.02 369.486 130.98L369.756 129.18H371.826C371.646 131.7 371.556 134.52 371.556 137.64V141.96C371.556 145.02 371.736 149.28 372.096 154.74H370.026C369.966 154.32 369.786 152.88 369.486 150.42C369.186 147.9 368.346 146.01 366.966 144.75C365.646 143.49 363.786 142.86 361.386 142.86H355.446V164.46C355.446 166.74 355.626 168.39 355.986 169.41C356.346 170.43 357.006 171.12 357.966 171.48C358.986 171.78 360.576 171.93 362.736 171.93H369.306C373.026 171.93 375.846 171.45 377.766 170.49C379.746 169.47 381.186 167.88 382.086 165.72C382.986 163.5 383.646 160.26 384.066 156H386.136C385.956 157.62 385.866 159.78 385.866 162.48ZM424.24 109.02C427.84 109.02 430.9 109.53 433.42 110.55C435.94 111.57 438.4 113.01 440.8 114.87C441.46 115.41 442.03 115.68 442.51 115.68C443.71 115.68 444.49 113.88 444.85 110.28H446.92C446.68 114.18 446.56 121.08 446.56 130.98H444.49C443.83 127.08 443.23 124.29 442.69 122.61C442.15 120.87 441.25 119.22 439.99 117.66C438.19 115.32 435.88 113.58 433.06 112.44C430.3 111.24 427.3 110.64 424.06 110.64C420.16 110.64 416.74 111.93 413.8 114.51C410.92 117.09 408.67 120.78 407.05 125.58C405.43 130.32 404.62 135.9 404.62 142.32C404.62 148.86 405.49 154.47 407.23 159.15C408.97 163.83 411.37 167.4 414.43 169.86C417.55 172.26 421.06 173.46 424.96 173.46C427.96 173.46 430.87 172.89 433.69 171.75C436.51 170.61 438.73 168.9 440.35 166.62C441.55 164.94 442.42 163.14 442.96 161.22C443.5 159.3 444.01 156.36 444.49 152.4H446.56C446.56 162.72 446.68 169.92 446.92 174H444.85C444.67 172.08 444.4 170.73 444.04 169.95C443.74 169.11 443.29 168.69 442.69 168.69C442.21 168.69 441.58 168.93 440.8 169.41C438.1 171.33 435.52 172.8 433.06 173.82C430.6 174.78 427.63 175.26 424.15 175.26C418.45 175.26 413.44 173.97 409.12 171.39C404.86 168.81 401.53 165.09 399.13 160.23C396.79 155.31 395.62 149.46 395.62 142.68C395.62 136.08 396.82 130.23 399.22 125.13C401.68 120.03 405.07 116.07 409.39 113.25C413.77 110.43 418.72 109.02 424.24 109.02ZM511.763 112.08C509.663 112.2 508.103 112.53 507.083 113.07C506.063 113.55 505.373 114.39 505.013 115.59C504.653 116.73 504.473 118.44 504.473 120.72V147.81C504.473 152.13 504.173 155.85 503.573 158.97C503.033 162.03 502.103 164.67 500.783 166.89C499.283 169.47 497.063 171.51 494.123 173.01C491.243 174.51 487.973 175.26 484.313 175.26C477.713 175.26 472.673 173.64 469.193 170.4C466.553 167.94 464.783 165.15 463.883 162.03C462.983 158.91 462.533 154.26 462.533 148.08V119.82C462.533 117.54 462.353 115.89 461.993 114.87C461.633 113.85 460.943 113.16 459.923 112.8C458.963 112.44 457.403 112.2 455.243 112.08V110.28C457.763 110.46 461.603 110.55 466.763 110.55C471.623 110.55 475.433 110.46 478.193 110.28V112.08C476.033 112.2 474.443 112.44 473.423 112.8C472.463 113.16 471.803 113.85 471.443 114.87C471.083 115.89 470.903 117.54 470.903 119.82V149.61C470.903 154.41 471.233 158.4 471.893 161.58C472.553 164.76 473.903 167.31 475.942 169.23C478.043 171.15 481.103 172.11 485.123 172.11C491.483 172.11 495.953 170.07 498.533 165.99C501.113 161.91 502.402 156.18 502.402 148.8V120.72C502.402 117.48 501.803 115.26 500.603 114.06C499.463 112.86 497.333 112.2 494.213 112.08V110.28C496.373 110.46 499.433 110.55 503.393 110.55C506.993 110.55 509.783 110.46 511.763 110.28V112.08ZM573.56 169.5C572.18 171.54 570.8 173.01 569.42 173.91C568.04 174.81 566.21 175.26 563.93 175.26C561.47 175.26 559.43 174.54 557.81 173.1C556.25 171.66 555.08 169.14 554.3 165.54L552.32 156.54C551.6 153.42 550.91 151.02 550.25 149.34C549.65 147.66 548.72 146.31 547.46 145.29C546.2 144.27 544.43 143.76 542.15 143.76H533.6V164.46C533.6 166.74 533.78 168.39 534.14 169.41C534.5 170.43 535.16 171.12 536.12 171.48C537.14 171.84 538.73 172.08 540.89 172.2V174C538.13 173.82 534.32 173.73 529.46 173.73C524.3 173.73 520.46 173.82 517.94 174V172.2C520.1 172.08 521.66 171.84 522.62 171.48C523.64 171.12 524.33 170.43 524.69 169.41C525.05 168.39 525.23 166.74 525.23 164.46V119.82C525.23 117.54 525.05 115.89 524.69 114.87C524.33 113.85 523.64 113.16 522.62 112.8C521.66 112.44 520.1 112.2 517.94 112.08V110.28C520.46 110.46 524.12 110.55 528.92 110.55L538.64 110.46C539.78 110.4 541.07 110.37 542.51 110.37C549.47 110.37 554.81 111.84 558.53 114.78C562.31 117.66 564.2 121.41 564.2 126.03C564.2 128.37 563.63 130.74 562.49 133.14C561.41 135.48 559.55 137.61 556.91 139.53C554.33 141.39 550.94 142.65 546.74 143.31L547.82 143.49C551.78 144.15 554.66 145.35 556.46 147.09C558.26 148.83 559.58 151.59 560.42 155.37L562.67 164.55C563.27 167.31 563.9 169.23 564.56 170.31C565.22 171.39 566.12 171.93 567.26 171.93C568.28 171.93 569.12 171.66 569.78 171.12C570.5 170.58 571.31 169.71 572.21 168.51L573.56 169.5ZM540.26 112.08C538.4 112.08 536.99 112.29 536.03 112.71C535.13 113.13 534.5 113.88 534.14 114.96C533.78 116.04 533.6 117.66 533.6 119.82V141.96H539.63C545.57 141.96 549.65 140.64 551.87 138C554.09 135.36 555.2 131.7 555.2 127.02C555.2 122.1 554.03 118.38 551.69 115.86C549.35 113.34 545.54 112.08 540.26 112.08Z" fill="black"/>
</svg>
