<svg width="70" height="70" viewBox="0 0 70 70" fill="none" xmlns="http://www.w3.org/2000/svg">
<path d="M40.3962 5.77087V23.0835C40.3958 24.0515 40.6389 25.0041 41.1031 25.8535L57.0019 54.9387C57.4828 55.8176 57.7266 56.8066 57.7093 57.8083C57.692 58.81 57.4142 59.79 56.9032 60.6518C56.3922 61.5136 55.6657 62.2275 54.7951 62.7233C53.9245 63.2192 52.9398 63.4798 51.9379 63.4795H17.3127C16.3108 63.4798 15.3262 63.2192 14.4555 62.7233C13.5849 62.2275 12.8584 61.5136 12.3474 60.6518C11.8365 59.79 11.5587 58.81 11.5414 57.8083C11.5241 56.8066 11.7679 55.8176 12.2488 54.9387L28.1475 25.8535C28.6118 25.0041 28.8549 24.0515 28.8545 23.0835V5.77087" stroke="white" stroke-width="4" stroke-linecap="round" stroke-linejoin="round"/>
<path d="M18.6196 43.2815H50.6306" stroke="white" stroke-width="4" stroke-linecap="round" stroke-linejoin="round"/>
<path d="M24.5264 5.77087H44.7244" stroke="white" stroke-width="4" stroke-linecap="round" stroke-linejoin="round"/>
</svg>
