<svg width="181" height="21" viewBox="0 0 181 21" fill="none" xmlns="http://www.w3.org/2000/svg">
<path d="M10.1359 1.66893e-06C11.2932 1.66893e-06 12.2639 0.158669 13.0479 0.476002C13.8506 0.793336 14.6346 1.24134 15.3999 1.82C15.6239 1.988 15.8106 2.072 15.9599 2.072C16.1466 2.072 16.2959 1.94134 16.4079 1.68C16.5199 1.4 16.6039 0.970669 16.6599 0.392003H17.3039C17.2292 1.66134 17.1919 3.92 17.1919 7.168H16.5479C16.3986 5.89867 16.1746 4.872 15.8759 4.088C15.5959 3.304 15.1199 2.64134 14.4479 2.1C13.9999 1.67067 13.4492 1.33467 12.7959 1.092C12.1426 0.849336 11.4706 0.728002 10.7799 0.728002C9.47323 0.728002 8.38123 1.176 7.5039 2.072C6.64523 2.94934 6.01057 4.116 5.5999 5.572C5.18923 7.028 4.9839 8.624 4.9839 10.36C4.9839 16.8187 6.7759 20.048 10.3599 20.048C11.1812 20.048 11.8439 19.8613 12.3479 19.488C12.5906 19.32 12.7586 19.124 12.8519 18.9C12.9639 18.676 13.0199 18.3867 13.0199 18.032V15.288C13.0199 14.4107 12.9452 13.776 12.7959 13.384C12.6466 12.9733 12.3759 12.6933 11.9839 12.544C11.6106 12.3947 11.0132 12.3013 10.1919 12.264V11.704C11.3492 11.76 12.9452 11.788 14.9799 11.788C16.6412 11.788 17.8919 11.76 18.7319 11.704V12.264C18.3586 12.3013 18.0879 12.376 17.9199 12.488C17.7519 12.6 17.6306 12.8147 17.5559 13.132C17.4999 13.4493 17.4719 13.9627 17.4719 14.672V20.216H16.9119C16.8932 19.824 16.8092 19.46 16.6599 19.124C16.5292 18.788 16.3426 18.62 16.0999 18.62C15.7826 18.62 15.2786 18.816 14.5879 19.208C12.9639 20.1413 11.4332 20.608 9.9959 20.608C6.76657 20.608 4.29323 19.7307 2.5759 17.976C0.858565 16.2027 -0.000101522 13.72 -0.000101522 10.528C-0.000101522 8.43734 0.429232 6.59867 1.2879 5.012C2.16523 3.42534 3.36923 2.19334 4.8999 1.316C6.43057 0.438669 8.1759 1.66893e-06 10.1359 1.66893e-06ZM28.8217 3.752C28.1871 3.78934 27.7297 3.864 27.4497 3.976C27.1697 4.088 26.9737 4.30267 26.8617 4.62C26.7684 4.93734 26.7217 5.45067 26.7217 6.16V17.584C26.7217 18.1627 26.7684 18.592 26.8617 18.872C26.9737 19.152 27.1511 19.3387 27.3937 19.432C27.6364 19.5253 28.0004 19.572 28.4857 19.572H29.5777C30.8097 19.572 31.8457 19.1333 32.6857 18.256C33.5257 17.36 34.0951 15.9227 34.3937 13.944H35.0377C34.9817 14.56 34.9537 15.3253 34.9537 16.24C34.9537 17.3973 35.0191 18.7227 35.1497 20.216C33.9364 20.16 31.8924 20.132 29.0177 20.132C25.1724 20.132 22.2791 20.16 20.3377 20.216V19.656C20.9724 19.6187 21.4297 19.544 21.7097 19.432C21.9897 19.32 22.1764 19.1053 22.2697 18.788C22.3817 18.4707 22.4377 17.9573 22.4377 17.248V6.16C22.4377 5.45067 22.3817 4.93734 22.2697 4.62C22.1764 4.30267 21.9804 4.088 21.6817 3.976C21.4017 3.864 20.9537 3.78934 20.3377 3.752V3.192C21.2897 3.248 22.7644 3.276 24.7617 3.276C26.5164 3.276 27.8697 3.248 28.8217 3.192V3.752ZM46.1312 2.8C48.0165 2.8 49.6685 3.14534 51.0872 3.836C52.5059 4.508 53.6072 5.50667 54.3912 6.832C55.1752 8.13867 55.5672 9.70667 55.5672 11.536C55.5672 13.328 55.1659 14.9147 54.3632 16.296C53.5605 17.6587 52.4405 18.7227 51.0032 19.488C49.5659 20.2347 47.9325 20.608 46.1032 20.608C44.2179 20.608 42.5659 20.272 41.1472 19.6C39.7285 18.9093 38.6272 17.9107 37.8432 16.604C37.0592 15.2787 36.6672 13.7013 36.6672 11.872C36.6672 10.08 37.0685 8.50267 37.8712 7.14C38.6739 5.75867 39.7939 4.69467 41.2312 3.948C42.6685 3.18267 44.3019 2.8 46.1312 2.8ZM46.0192 3.304C45.0485 3.304 44.1899 3.668 43.4432 4.396C42.7152 5.10534 42.1459 6.104 41.7352 7.392C41.3432 8.66134 41.1472 10.1173 41.1472 11.76C41.1472 13.4213 41.3712 14.8867 41.8192 16.156C42.2672 17.4253 42.8739 18.4053 43.6392 19.096C44.4232 19.768 45.2819 20.104 46.2152 20.104C47.1859 20.104 48.0352 19.7493 48.7632 19.04C49.5099 18.312 50.0792 17.3133 50.4712 16.044C50.8819 14.756 51.0872 13.2907 51.0872 11.648C51.0872 9.98667 50.8632 8.52134 50.4152 7.252C49.9672 5.98267 49.3512 5.012 48.5672 4.34C47.8019 3.64934 46.9525 3.304 46.0192 3.304ZM64.8293 2.8C65.688 2.8 66.416 2.89334 67.0133 3.08C67.6293 3.26667 68.208 3.51867 68.7493 3.836C68.9546 3.948 69.132 4.04134 69.2813 4.116C69.4493 4.19067 69.5893 4.228 69.7013 4.228C69.8693 4.228 70 4.13467 70.0933 3.948C70.1866 3.74267 70.2613 3.42534 70.3173 2.996H70.9613C70.868 4.116 70.8213 6.05734 70.8213 8.82H70.1773C69.972 7.14 69.4306 5.824 68.5533 4.872C67.676 3.90134 66.528 3.416 65.1093 3.416C64.176 3.416 63.42 3.62134 62.8413 4.032C62.2813 4.44267 62.0013 4.97467 62.0013 5.628C62.0013 6.132 62.1506 6.59867 62.4493 7.028C62.7666 7.43867 63.1773 7.82134 63.6813 8.176C64.1853 8.53067 64.9226 8.99734 65.8933 9.576L66.5093 9.94C67.6293 10.5747 68.544 11.1533 69.2533 11.676C69.9626 12.18 70.5506 12.7867 71.0173 13.496C71.484 14.1867 71.7173 14.9707 71.7173 15.848C71.7173 17.3787 71.0826 18.5547 69.8133 19.376C68.544 20.1973 66.8733 20.608 64.8013 20.608C63.9053 20.608 63.1306 20.5053 62.4773 20.3C61.824 20.1133 61.1613 19.852 60.4893 19.516C60.0226 19.292 59.696 19.18 59.5093 19.18C59.3413 19.18 59.2106 19.2827 59.1173 19.488C59.024 19.6747 58.9493 19.9827 58.8933 20.412H58.2493C58.324 19.3667 58.3613 17.0893 58.3613 13.58H59.0053C59.136 15.5587 59.668 17.1173 60.6013 18.256C61.5533 19.3947 62.888 19.964 64.6053 19.964C65.4453 19.964 66.1733 19.7493 66.7893 19.32C67.4053 18.8907 67.7133 18.256 67.7133 17.416C67.7133 16.6693 67.424 16.0253 66.8453 15.484C66.2666 14.9427 65.2773 14.2613 63.8773 13.44C62.104 12.432 60.7413 11.4707 59.7893 10.556C58.856 9.64134 58.3893 8.568 58.3893 7.336C58.3893 5.88 58.9866 4.76 60.1813 3.976C61.3946 3.192 62.944 2.8 64.8293 2.8ZM81.0168 2.8C81.8755 2.8 82.6035 2.89334 83.2008 3.08C83.8168 3.26667 84.3955 3.51867 84.9368 3.836C85.1421 3.948 85.3195 4.04134 85.4688 4.116C85.6368 4.19067 85.7768 4.228 85.8888 4.228C86.0568 4.228 86.1875 4.13467 86.2808 3.948C86.3741 3.74267 86.4488 3.42534 86.5048 2.996H87.1488C87.0555 4.116 87.0088 6.05734 87.0088 8.82H86.3648C86.1595 7.14 85.6181 5.824 84.7408 4.872C83.8635 3.90134 82.7155 3.416 81.2968 3.416C80.3635 3.416 79.6075 3.62134 79.0288 4.032C78.4688 4.44267 78.1888 4.97467 78.1888 5.628C78.1888 6.132 78.3381 6.59867 78.6368 7.028C78.9541 7.43867 79.3648 7.82134 79.8688 8.176C80.3728 8.53067 81.1101 8.99734 82.0808 9.576L82.6968 9.94C83.8168 10.5747 84.7315 11.1533 85.4408 11.676C86.1501 12.18 86.7381 12.7867 87.2048 13.496C87.6715 14.1867 87.9048 14.9707 87.9048 15.848C87.9048 17.3787 87.2701 18.5547 86.0008 19.376C84.7315 20.1973 83.0608 20.608 80.9888 20.608C80.0928 20.608 79.3181 20.5053 78.6648 20.3C78.0115 20.1133 77.3488 19.852 76.6768 19.516C76.2101 19.292 75.8835 19.18 75.6968 19.18C75.5288 19.18 75.3981 19.2827 75.3048 19.488C75.2115 19.6747 75.1368 19.9827 75.0808 20.412H74.4368C74.5115 19.3667 74.5488 17.0893 74.5488 13.58H75.1928C75.3235 15.5587 75.8555 17.1173 76.7888 18.256C77.7408 19.3947 79.0755 19.964 80.7928 19.964C81.6328 19.964 82.3608 19.7493 82.9768 19.32C83.5928 18.8907 83.9008 18.256 83.9008 17.416C83.9008 16.6693 83.6115 16.0253 83.0328 15.484C82.4541 14.9427 81.4648 14.2613 80.0648 13.44C78.2915 12.432 76.9288 11.4707 75.9768 10.556C75.0435 9.64134 74.5768 8.568 74.5768 7.336C74.5768 5.88 75.1741 4.76 76.3688 3.976C77.5821 3.192 79.1315 2.8 81.0168 2.8ZM106.5 3.192C106.37 4.61067 106.304 5.88 106.304 7C106.304 8.04534 106.332 8.86667 106.388 9.464H105.744C105.483 8.04534 105.166 6.93467 104.792 6.132C104.438 5.32934 103.971 4.75067 103.392 4.396C102.832 4.02267 102.104 3.836 101.208 3.836H100.34V16.968C100.34 17.752 100.415 18.3213 100.564 18.676C100.714 19.0307 100.975 19.2733 101.348 19.404C101.722 19.5347 102.328 19.6187 103.168 19.656V20.216C102.16 20.16 100.48 20.132 98.1283 20.132C95.7576 20.132 94.1243 20.16 93.2283 20.216V19.656C94.0683 19.6187 94.675 19.5347 95.0483 19.404C95.4216 19.2733 95.683 19.0307 95.8323 18.676C95.9816 18.3213 96.0563 17.752 96.0563 16.968V3.836H95.1883C94.2923 3.836 93.555 4.02267 92.9763 4.396C92.4163 4.75067 91.9496 5.32934 91.5763 6.132C91.2216 6.93467 90.9136 8.04534 90.6523 9.464H90.0083C90.0643 8.86667 90.0923 8.04534 90.0923 7C90.0923 5.88 90.027 4.61067 89.8963 3.192C91.5203 3.248 94.2643 3.276 98.1283 3.276C102.067 3.276 104.858 3.248 106.5 3.192ZM122.864 16.576C122.864 17.64 122.929 18.8533 123.06 20.216C121.847 20.16 119.803 20.132 116.928 20.132C113.083 20.132 110.189 20.16 108.248 20.216V19.656C108.883 19.6187 109.34 19.544 109.62 19.432C109.9 19.32 110.087 19.1053 110.18 18.788C110.292 18.4707 110.348 17.9573 110.348 17.248V6.16C110.348 5.45067 110.292 4.93734 110.18 4.62C110.087 4.30267 109.891 4.088 109.592 3.976C109.312 3.864 108.864 3.78934 108.248 3.752V3.192C110.189 3.248 113.083 3.276 116.928 3.276C119.541 3.276 121.399 3.248 122.5 3.192C122.369 4.44267 122.304 5.56267 122.304 6.552C122.304 7.28 122.332 7.85867 122.388 8.288H121.744C121.464 6.68267 120.979 5.544 120.288 4.872C119.597 4.18134 118.645 3.836 117.432 3.836H116.396C115.911 3.836 115.547 3.88267 115.304 3.976C115.061 4.05067 114.884 4.21867 114.772 4.48C114.679 4.72267 114.632 5.11467 114.632 5.656V11.368H115.948C116.807 11.368 117.451 11.0693 117.88 10.472C118.328 9.856 118.627 9.14667 118.776 8.344H119.42C119.364 8.97867 119.336 9.70667 119.336 10.528V11.648C119.336 12.488 119.392 13.5893 119.504 14.952H118.86C118.729 14.0747 118.431 13.356 117.964 12.796C117.516 12.2173 116.844 11.928 115.948 11.928H114.632V17.752C114.632 18.2933 114.679 18.6947 114.772 18.956C114.884 19.1987 115.061 19.3667 115.304 19.46C115.547 19.5347 115.911 19.572 116.396 19.572H117.6C118.925 19.572 119.961 19.1893 120.708 18.424C121.473 17.6587 122.005 16.3707 122.304 14.56H122.948C122.892 15.0827 122.864 15.7547 122.864 16.576ZM134.522 2.8C135.605 2.8 136.482 2.95867 137.154 3.276C137.826 3.57467 138.517 4.02267 139.226 4.62C139.432 4.788 139.609 4.872 139.758 4.872C140.132 4.872 140.374 4.312 140.486 3.192H141.13C141.056 4.312 141.018 6.272 141.018 9.072H140.374C140.188 8.064 140.001 7.336 139.814 6.888C139.628 6.42134 139.348 5.95467 138.974 5.488C138.452 4.872 137.854 4.396 137.182 4.06C136.529 3.70534 135.848 3.528 135.138 3.528C134.112 3.528 133.216 3.864 132.45 4.536C131.685 5.18934 131.088 6.132 130.658 7.364C130.248 8.596 130.042 10.0613 130.042 11.76C130.042 13.4773 130.266 14.952 130.714 16.184C131.181 17.3973 131.816 18.3213 132.618 18.956C133.421 19.572 134.326 19.88 135.334 19.88C136.062 19.88 136.772 19.712 137.462 19.376C138.172 19.0213 138.778 18.536 139.282 17.92C139.656 17.4533 139.926 16.9493 140.094 16.408C140.262 15.8667 140.421 15.0827 140.57 14.056H141.214C141.214 16.9867 141.252 19.04 141.326 20.216H140.682C140.626 19.6373 140.542 19.2173 140.43 18.956C140.318 18.676 140.169 18.536 139.982 18.536C139.833 18.536 139.646 18.62 139.422 18.788C138.732 19.3667 138.013 19.8147 137.266 20.132C136.52 20.4493 135.624 20.608 134.578 20.608C132.805 20.608 131.237 20.2627 129.874 19.572C128.512 18.8813 127.448 17.8827 126.682 16.576C125.936 15.2693 125.562 13.7013 125.562 11.872C125.562 10.0987 125.954 8.52134 126.738 7.14C127.522 5.75867 128.586 4.69467 129.93 3.948C131.293 3.18267 132.824 2.8 134.522 2.8ZM161.073 3.752C160.419 3.84534 159.934 4.004 159.617 4.228C159.299 4.452 159.085 4.80667 158.973 5.292C158.861 5.77734 158.805 6.496 158.805 7.448V12.628C158.805 13.916 158.711 15.0173 158.525 15.932C158.357 16.828 158.067 17.612 157.657 18.284C157.209 18.9933 156.537 19.5627 155.641 19.992C154.763 20.4027 153.765 20.608 152.645 20.608C150.535 20.608 148.893 20.1973 147.717 19.376C147.063 18.8907 146.569 18.368 146.233 17.808C145.897 17.248 145.654 16.576 145.505 15.792C145.374 14.9893 145.309 13.9627 145.309 12.712V6.16C145.309 5.45067 145.253 4.93734 145.141 4.62C145.047 4.30267 144.851 4.088 144.553 3.976C144.273 3.864 143.825 3.78934 143.209 3.752V3.192C144.142 3.248 145.561 3.276 147.465 3.276C149.275 3.276 150.685 3.248 151.693 3.192V3.752C151.058 3.78934 150.601 3.864 150.321 3.976C150.041 4.088 149.845 4.30267 149.733 4.62C149.639 4.93734 149.593 5.45067 149.593 6.16V13.188C149.593 14.532 149.677 15.6427 149.845 16.52C150.031 17.3973 150.414 18.1067 150.993 18.648C151.571 19.1893 152.43 19.46 153.569 19.46C155.267 19.46 156.453 18.8907 157.125 17.752C157.815 16.5947 158.161 14.9893 158.161 12.936V7.784C158.161 6.70134 158.095 5.89867 157.965 5.376C157.834 4.85334 157.582 4.48 157.209 4.256C156.835 4.01334 156.247 3.84534 155.445 3.752V3.192C156.173 3.248 157.181 3.276 158.469 3.276C159.589 3.276 160.457 3.248 161.073 3.192V3.752ZM180.477 19.04C180.029 19.5627 179.525 19.9547 178.965 20.216C178.405 20.4773 177.705 20.608 176.865 20.608C175.801 20.608 174.98 20.4027 174.401 19.992C173.823 19.5813 173.449 19.0307 173.281 18.34L172.469 15.036C172.264 13.9907 171.947 13.3 171.517 12.964C171.107 12.6093 170.491 12.432 169.669 12.432H168.745V17.248C168.745 17.9573 168.792 18.4707 168.885 18.788C168.997 19.1053 169.193 19.32 169.473 19.432C169.772 19.544 170.229 19.6187 170.845 19.656V20.216C169.781 20.16 168.26 20.132 166.281 20.132C164.545 20.132 163.239 20.16 162.361 20.216V19.656C162.996 19.6187 163.453 19.544 163.733 19.432C164.013 19.32 164.2 19.1053 164.293 18.788C164.405 18.4707 164.461 17.9573 164.461 17.248V6.16C164.461 5.45067 164.405 4.93734 164.293 4.62C164.2 4.30267 164.013 4.088 163.733 3.976C163.453 3.864 162.996 3.78934 162.361 3.752V3.192C163.239 3.248 164.489 3.276 166.113 3.276L169.305 3.248C169.679 3.22934 170.099 3.22 170.565 3.22C173.067 3.22 174.933 3.60267 176.165 4.368C177.416 5.11467 178.041 6.16 178.041 7.504C178.041 8.66134 177.547 9.67867 176.557 10.556C175.568 11.4333 173.916 11.9933 171.601 12.236C171.863 12.236 172.133 12.264 172.413 12.32C173.757 12.4693 174.812 12.768 175.577 13.216C176.361 13.664 176.875 14.3733 177.117 15.344L177.705 17.836C177.836 18.3587 177.995 18.732 178.181 18.956C178.368 19.18 178.601 19.292 178.881 19.292C179.273 19.292 179.675 19.0867 180.085 18.676L180.477 19.04ZM170.201 3.752C169.791 3.752 169.483 3.81734 169.277 3.948C169.072 4.07867 168.932 4.312 168.857 4.648C168.783 4.984 168.745 5.488 168.745 6.16V11.872H169.949C171.331 11.872 172.273 11.5173 172.777 10.808C173.3 10.0987 173.561 9.1 173.561 7.812C173.561 6.44934 173.3 5.432 172.777 4.76C172.273 4.088 171.415 3.752 170.201 3.752Z" fill="black"/>
</svg>
