<svg width="54" height="54" viewBox="0 0 54 54" fill="none" xmlns="http://www.w3.org/2000/svg">
<path d="M46.7708 20.3017C46.4895 20.3625 42.714 21.2422 37.8765 24.2932C37.1497 20.7675 34.9987 14.166 28.6335 7.45199L27 5.72849L25.3665 7.45424C18.9788 14.193 16.8368 20.8125 16.1168 24.3607C11.2613 21.258 7.515 20.367 7.2405 20.304L4.5 19.692V22.5C4.5 38.9025 13.3313 49.5 27 49.5C40.4572 49.5 49.5 38.6505 49.5 22.5V19.7055L46.7708 20.3017ZM20.2477 27.0855C20.2522 27.0112 20.5898 20.1105 27 12.3885C33.3315 20.0385 33.7477 27 33.75 27V27.2812C31.2268 29.3781 28.9542 31.7593 26.9775 34.3777C24.9952 31.8056 22.7386 29.457 20.2477 27.3735V27.0855ZM27 45C15.039 45 10.0148 35.559 9.14175 25.731C12.8655 27.3465 19.5278 31.1895 25.1325 39.5077L27.0247 42.318L28.881 39.483C34.3395 31.14 41.0872 27.3082 44.847 25.7085C43.9515 35.2215 38.934 45 27 45Z" fill="#9C8B76"/>
</svg>
