<svg width="67" height="67" viewBox="0 0 67 67" fill="none" xmlns="http://www.w3.org/2000/svg">
<path d="M41.3136 24.7882L24.7881 41.3137" stroke="white" stroke-width="4" stroke-linecap="round" stroke-linejoin="round"/>
<path d="M7.12229 46.0676C6.08917 45.0348 5.50861 43.6339 5.5083 42.1731V23.9289C5.50861 22.4681 6.08917 21.0672 7.12229 20.0344L20.0342 7.12253C21.067 6.08942 22.4679 5.50886 23.9287 5.50854H42.1728C43.6337 5.50886 45.0345 6.08942 46.0673 7.12253L58.9793 20.0344C60.0124 21.0672 60.5929 22.4681 60.5932 23.9289V42.1731C60.5929 43.6339 60.0124 45.0348 58.9793 46.0676L46.0673 58.9795C45.0345 60.0126 43.6337 60.5932 42.1728 60.5935H23.9287C22.4679 60.5932 21.067 60.0126 20.0342 58.9795L7.12229 46.0676Z" stroke="white" stroke-width="4" stroke-linecap="round" stroke-linejoin="round"/>
<path d="M24.7881 24.7882L41.3136 41.3137" stroke="white" stroke-width="4" stroke-linecap="round" stroke-linejoin="round"/>
</svg>
