<svg width="54" height="54" viewBox="0 0 54 54" fill="none" xmlns="http://www.w3.org/2000/svg">
<path d="M47.2387 15.5318C47.2025 15.153 47.0705 14.7897 46.8552 14.476C46.6399 14.1623 46.3484 13.9085 46.008 13.7385L28.0687 4.73851C27.7567 4.58087 27.412 4.49838 27.0624 4.49759C26.7128 4.49681 26.3678 4.57777 26.055 4.73401L7.99424 13.734C7.32599 14.0715 6.86474 14.7173 6.77024 15.4598C6.74099 15.678 4.19399 37.377 25.9875 49.2278C26.3225 49.4105 26.6987 49.5045 27.0802 49.501C27.4618 49.4974 27.8362 49.3964 28.1677 49.2075C49.1085 37.3748 47.3242 16.4183 47.2387 15.5318V15.5318ZM27.0405 44.6558C11.6055 35.6333 10.9755 21.3638 11.1487 17.1945L27.0585 9.26776L42.804 17.1675C42.8152 21.375 41.7217 35.7143 27.0405 44.6558Z" fill="#9C8B76"/>
</svg>
