<svg width="54" height="54" viewBox="0 0 54 54" fill="none" xmlns="http://www.w3.org/2000/svg">
<path d="M25.9314 5.16376C26.03 4.96454 26.1823 4.79685 26.3712 4.67961C26.56 4.56237 26.7779 4.50024 27.0001 4.50024C27.2224 4.50024 27.4403 4.56237 27.6291 4.67961C27.818 4.79685 27.9703 4.96454 28.0689 5.16376L33.2664 15.6915C33.6088 16.3844 34.1142 16.9839 34.7393 17.4385C35.3644 17.8931 36.0904 18.1893 36.8551 18.3015L48.4786 20.0025C48.6989 20.0344 48.9058 20.1273 49.076 20.2707C49.2462 20.4141 49.3729 20.6022 49.4417 20.8139C49.5105 21.0255 49.5188 21.2522 49.4655 21.4682C49.4122 21.6843 49.2995 21.8811 49.1401 22.0365L40.7341 30.222C40.1798 30.7622 39.765 31.4291 39.5255 32.1652C39.286 32.9013 39.229 33.6845 39.3594 34.4475L41.3439 46.0125C41.3828 46.2326 41.359 46.4593 41.2753 46.6665C41.1915 46.8738 41.0512 47.0534 40.8704 47.1847C40.6895 47.3161 40.4753 47.394 40.2523 47.4095C40.0293 47.425 39.8065 47.3776 39.6091 47.2725L29.2186 41.8095C28.534 41.45 27.7723 41.2622 26.999 41.2622C26.2257 41.2622 25.464 41.45 24.7794 41.8095L14.3911 47.2725C14.1939 47.3769 13.9713 47.4239 13.7487 47.4081C13.526 47.3923 13.3123 47.3143 13.1318 47.183C12.9513 47.0517 12.8113 46.8724 12.7276 46.6655C12.644 46.4586 12.6201 46.2323 12.6586 46.0125L14.6409 34.4498C14.7718 33.6864 14.7151 32.9027 14.4756 32.1661C14.2361 31.4296 13.821 30.7624 13.2661 30.222L4.86014 22.0388C4.69948 21.8836 4.58563 21.6864 4.53156 21.4697C4.47749 21.2529 4.48538 21.0254 4.55432 20.8129C4.62326 20.6005 4.75049 20.4116 4.92152 20.268C5.09254 20.1243 5.30048 20.0315 5.52164 20.0003L17.1429 18.3015C17.9085 18.1901 18.6355 17.8944 19.2615 17.4397C19.8874 16.9851 20.3935 16.3851 20.7361 15.6915L25.9314 5.16376Z" stroke="#9C8B76" stroke-width="4" stroke-linecap="round" stroke-linejoin="round"/>
</svg>
